<?xml version="1.0" encoding="UTF-8"?>
<svg width="28px" height="29px" viewBox="0 0 28 29" version="1.1" xmlns="http://www.w3.org/2000/svg" xmlns:xlink="http://www.w3.org/1999/xlink">
    <title>settings</title>
    <g id="Page-1" stroke="none" stroke-width="1" fill="none" fill-rule="evenodd">
        <g id="Home-Screen" transform="translate(-368.000000, -82.000000)" fill="#06224A" fill-rule="nonzero">
            <g id="settings" transform="translate(382.000000, 96.500000) scale(-1, 1) translate(-382.000000, -96.500000) translate(368.000000, 82.000000)">
                <path d="M27.515293,17.6779355 L24.8723691,15.5935605 C24.9058963,15.272125 24.93465,14.8963711 24.93465,14.4988105 C24.93465,14.10125 24.9070757,13.7254961 24.8723691,13.4040605 L27.5177078,11.3184961 C28.0089353,10.9269961 28.1431004,10.2321855 27.8304041,9.65343164 L25.0820126,4.8575 C24.7884668,4.31618555 24.1451031,4.03825 23.4921924,4.281125 L20.3735972,5.54381445 C19.775779,5.10881445 19.1491509,4.7415 18.5010137,4.447875 L18.0265779,1.11168555 C17.9486847,0.4785 17.4023647,0 16.7566424,0 L11.2455387,0 C10.5997602,0 10.0546758,0.4785 9.97796186,1.102 L9.50234676,4.45031055 C8.87453932,4.73549609 8.25757067,5.09799609 7.63335744,5.54625 L4.50639453,4.27993555 C3.9204821,4.05156055 3.2196111,4.30768945 2.92848007,4.846625 L0.176550538,9.64856055 C-0.148107734,10.2019961 -0.013942605,10.9209355 0.488067478,11.3221211 L3.13099136,13.4064961 C3.08904018,13.8136855 3.06871043,14.1677461 3.06871043,14.5000566 C3.06871043,14.8323672 3.08909634,15.1863711 3.13099136,15.5948066 L0.485652618,17.6803711 C-0.00557483427,18.0730605 -0.138560613,18.7678711 0.174135678,19.3454355 L2.92252716,24.1413105 C3.21607305,24.6814355 3.85342761,24.96175 4.51234744,24.7176855 L7.63094258,23.4549961 C8.22758148,23.8888066 8.85415341,24.2561211 9.50234676,24.5509355 L9.97678251,27.8859355 C10.0546196,28.5215 10.5997602,29 11.2467181,29 L16.7578217,29 C17.4036002,29 17.9499202,28.5215 18.0265779,27.898 L18.502193,24.5509355 C19.1300005,24.2645605 19.7457898,23.90325 20.3711824,23.45375 L23.4981453,24.7200645 C23.6491021,24.7792539 23.806068,24.8095 23.9678075,24.8095 C24.4326399,24.8095 24.860351,24.5533145 25.0760036,24.1545645 L27.836357,19.3333145 C28.1431004,18.7678145 28.0088791,18.0730605 27.515293,17.6779355 Z M14.0010625,19.3333145 C11.3581386,19.3333145 9.20880087,17.1655645 9.20880087,14.5 C9.20880087,11.8344355 11.3581386,9.66668555 14.0010625,9.66668555 C16.6439863,9.66668555 18.7933241,11.8344355 18.7933241,14.5 C18.7933241,17.1655645 16.6439863,19.3333145 14.0010625,19.3333145 Z" id="Shape"></path>
            </g>
        </g>
    </g>
</svg>