<?xml version="1.0" encoding="UTF-8"?>
<svg width="191px" height="191px" viewBox="0 0 191 191" version="1.1" xmlns="http://www.w3.org/2000/svg" xmlns:xlink="http://www.w3.org/1999/xlink">
    <title>Group 10</title>
    <defs>
        <path d="M37.6466727,19.5246933 C13.0016715,38.2913205 0.0328495197,66.7013904 0,95.4576437 L0,95.4576437 L0,95.6974172 C0.0258303916,115.824913 6.39021427,136.105146 19.5244069,153.353395 L19.5244069,153.353395 C51.4763205,195.313755 111.393564,203.426747 153.353631,171.475385 L153.353631,171.475385 C195.313418,139.523743 203.426968,79.6064824 171.475335,37.6466836 L171.475335,37.6466836 C152.68541,12.9710718 124.222284,0 95.4292586,0 L95.4292586,0 C75.2604958,0 54.9308546,6.3629819 37.6466727,19.5246933" id="path-1"></path>
        <path d="M37.6466727,19.5246933 C13.0016715,38.2913205 0.0328495197,66.7013904 0,95.4576437 L0,95.4576437 L0,95.6974172 C0.0258303916,115.824913 6.39021427,136.105146 19.5244069,153.353395 L19.5244069,153.353395 C51.4763205,195.313755 111.393564,203.426747 153.353631,171.475385 L153.353631,171.475385 C195.313418,139.523743 203.426968,79.6064824 171.475335,37.6466836 L171.475335,37.6466836 C152.68541,12.9710718 124.222284,0 95.4292586,0 L95.4292586,0 C75.2604958,0 54.9308546,6.3629819 37.6466727,19.5246933" id="path-3"></path>
    </defs>
    <g id="Page-1" stroke="none" stroke-width="1" fill="none" fill-rule="evenodd">
        <g id="Onboarding-3" transform="translate(-107.000000, -163.000000)">
            <g id="Group-10" transform="translate(107.000000, 163.000000)">
                <g id="Group-3">
                    <mask id="mask-2" fill="white">
                        <use xlink:href="#path-1"></use>
                    </mask>
                    <g id="Clip-2"></g>
                    <path d="M19.5246034,153.353619 C51.476517,195.313699 111.393479,203.426971 153.353547,171.475329 C195.313333,139.523687 203.426884,79.6064262 171.475251,37.6466275 C139.523618,-4.31345204 79.606375,-12.4267242 37.6465884,19.5249179 C-4.31347886,51.4765601 -12.4270295,111.393821 19.5246034,153.353619" id="Fill-1" fill="#06224A" mask="url(#mask-2)"></path>
                </g>
                <g id="Group-6">
                    <mask id="mask-4" fill="white">
                        <use xlink:href="#path-3"></use>
                    </mask>
                    <g id="Clip-5"></g>
                </g>
                <g id="hello" transform="translate(48.000000, 46.000000)" fill-rule="nonzero">
                    <path d="M99.0225915,47.4397329 C99.0233729,46.2602024 98.5656358,45.1514046 97.7341679,44.3175039 C96.0274707,42.606205 93.2439289,42.5991513 91.5286357,44.3014372 C90.5901085,45.2141039 74.5642297,61.2392603 73.1619091,62.6378465 C71.7898699,64.008022 69.5693662,64.0041033 68.2026018,62.6284416 C66.8356421,61.252388 66.8399401,59.0255833 68.2119793,57.654428 C76.6895912,49.1784628 90.2191129,35.6642173 98.7029765,27.1892317 C99.538547,26.3553311 99.9986285,25.2465332 100,24.066023 C100.001559,22.8855128 99.5438218,21.7755393 98.7113771,20.940659 L98.5902516,20.8191791 C96.8790611,19.1031778 94.0914166,19.1000428 92.375928,20.8119295 C86.8275992,26.346318 70.7192769,42.4392681 64.9837897,48.1692001 C63.6119458,49.5397675 61.3920282,49.5356529 60.0250685,48.1597952 C58.6583041,46.7841334 58.6618207,44.5575247 60.0332738,43.1865653 C68.7916233,34.4235549 80.8281757,22.4174234 89.5570253,13.6932081 C90.391619,12.8598953 90.8517005,11.7510974 90.853068,10.5707832 C90.8544356,9.39046892 90.3966985,8.28049543 89.5646445,7.44600698 L89.4157774,7.29670428 C88.5847002,6.46339145 87.4799186,6.00431504 86.304806,6.00431504 C85.1296934,6.00431504 84.0251071,6.46319551 83.1942253,7.29670428 L53.7417815,36.8347347 C52.3724774,38.2080453 50.1519737,38.2080453 48.7824742,36.8347347 C47.4129748,35.4614242 47.4129748,33.2344236 48.7824742,31.8609171 L72.9468137,7.62607153 C73.7776954,6.79256275 74.2352372,5.68454862 74.2352372,4.50599778 C74.2352372,3.32744694 73.7776954,2.21962875 72.9468137,1.38631591 L72.8485457,1.28756452 C71.136183,-0.429416528 68.345022,-0.430004334 66.6297288,1.29069948 L27.3059484,40.7299285 C26.1947197,41.8444085 24.4800126,42.0812943 23.1097317,41.309897 C21.7394508,40.5384997 21.0480587,38.9471132 21.4180775,37.415291 L28.1438633,9.55956108 C28.7995038,6.84448561 27.32021,4.0759198 24.7029226,3.11955959 C24.0855733,2.89403806 23.4512274,2.78176713 22.8211795,2.78176713 C21.9260231,2.78176713 21.0388766,3.00768053 20.2191306,3.4553927 C18.8220848,4.21816883 17.8577696,5.49468732 17.503966,7.0498258 L16.9844939,9.33247207 C14.3648622,20.8421036 10.0461525,32.38524 4.14812269,43.6411352 C0.622198809,50.3695535 -0.720145105,58.2426258 0.368421376,65.8096471 C1.4933255,73.6304047 5.04210693,80.7271813 10.630876,86.3323025 C17.4904859,93.2119828 26.6090861,97 36.3090887,97 L36.3337045,97 C46.0428892,96.9935341 55.1661782,93.1927812 62.0226622,86.2980138 L70.7618662,77.5097277 L97.732605,50.558827 C98.5632914,49.7276695 99.0220054,48.6190675 99.0225915,47.4397329 L99.0225915,47.4397329 Z" id="Path" fill="#FFFFFF"></path>
                    <path d="M90.7683475,76.2220381 C91.3903493,74.6842448 90.7166413,72.9035144 89.2637139,72.2453833 C87.8105958,71.5866463 86.1283292,72.2999078 85.5063275,73.8379031 C84.5462316,76.2115371 83.1759198,78.3503118 81.4335518,80.1944522 C79.3048177,82.4473245 76.7895266,84.0965902 73.95732,85.0964083 C72.457838,85.6257 71.6477093,87.3412029 72.1477911,88.9284722 C72.5477039,90.1974799 73.6642542,91 74.8624661,91 C75.1625915,91 75.4678684,90.9497163 75.7683754,90.8436964 C79.4507782,89.5435895 82.7187676,87.4021896 85.4811421,84.4782618 C87.7409545,82.0858471 89.5199557,79.3081259 90.7683475,76.2220381 L90.7683475,76.2220381 Z" id="Path" fill="#BDF1F6"></path>
                    <path d="M98.2582153,78.2333156 C96.799656,77.6077745 95.110677,78.2833359 94.4854981,79.7427402 C93.1430106,82.8760036 91.2287833,85.6989878 88.7960635,88.133117 C85.9666692,90.9641506 82.6385109,93.0789932 78.9042928,94.4184254 C77.4106821,94.954275 76.6338054,96.6001534 77.1693447,98.094821 C77.5899614,99.2688605 78.6953252,100 79.8740479,100 C80.1958312,100 80.523169,99.9455718 80.8436115,99.8305826 C85.3826709,98.2023359 89.4252647,95.6344359 92.8591518,92.1985594 C95.8111302,89.2450624 98.1350566,85.8164684 99.7667659,82.0080269 C100.392136,80.5488143 99.716583,78.8586651 98.2582153,78.2333156 L98.2582153,78.2333156 Z" id="Path" fill="#BDF1F6"></path>
                </g>
            </g>
        </g>
    </g>
</svg>