<svg id="Capa_1" enable-background="new 0 0 512 512" height="512" viewBox="0 0 512 512" width="512" xmlns="http://www.w3.org/2000/svg"><path d="m512 437c0-19.555-12.541-36.228-30-42.42v-294.813c0-55.012-44.756-99.767-99.768-99.767s-99.767 44.755-99.767 99.767v308.751c0 40.519-32.964 73.482-73.483 73.482s-73.482-32.964-73.482-73.482v-75.409h60.5c24.813 0 45-20.187 45-45v-148.19h-24.585v-80.43h-22.403v-59.489h-30v59.488h-87.024v-59.488h-30v59.488h-22.403v80.43h-24.585v148.19c0 24.813 20.187 45 45 45h60.5v75.409c0 57.061 46.422 103.483 103.483 103.483s103.483-46.422 103.483-103.482v-308.751c0-38.47 31.298-69.767 69.768-69.767s69.766 31.297 69.766 69.767v294.813c-17.459 6.192-30 22.865-30 42.42v45h30v30h30v-30h30zm-457.415-347.512h131.83v50.43h-131.83zm-24.585 198.62v-118.19h181v118.19c0 8.271-6.729 15-15 15h-151c-8.271 0-15-6.728-15-15zm452 163.892h-30v-15c0-8.271 6.729-15 15-15s15 6.729 15 15z"/></svg>