<?xml version="1.0" encoding="UTF-8"?>
<svg width="191px" height="191px" viewBox="0 0 191 191" version="1.1" xmlns="http://www.w3.org/2000/svg" xmlns:xlink="http://www.w3.org/1999/xlink">
    <title>Group 10</title>
    <defs>
        <path d="M37.6466727,19.5246933 C13.0016715,38.2913205 0.0328495197,66.7013904 0,95.4576437 L0,95.4576437 L0,95.6974172 C0.0258303916,115.824913 6.39021427,136.105146 19.5244069,153.353395 L19.5244069,153.353395 C51.4763205,195.313755 111.393564,203.426747 153.353631,171.475385 L153.353631,171.475385 C195.313418,139.523743 203.426968,79.6064824 171.475335,37.6466836 L171.475335,37.6466836 C152.68541,12.9710718 124.222284,0 95.4292586,0 L95.4292586,0 C75.2604958,0 54.9308546,6.3629819 37.6466727,19.5246933" id="path-1"></path>
        <path d="M37.6466727,19.5246933 C13.0016715,38.2913205 0.0328495197,66.7013904 0,95.4576437 L0,95.4576437 L0,95.6974172 C0.0258303916,115.824913 6.39021427,136.105146 19.5244069,153.353395 L19.5244069,153.353395 C51.4763205,195.313755 111.393564,203.426747 153.353631,171.475385 L153.353631,171.475385 C195.313418,139.523743 203.426968,79.6064824 171.475335,37.6466836 L171.475335,37.6466836 C152.68541,12.9710718 124.222284,0 95.4292586,0 L95.4292586,0 C75.2604958,0 54.9308546,6.3629819 37.6466727,19.5246933" id="path-3"></path>
        <path d="M37.6466727,19.5246933 C13.0016715,38.2913205 0.0328495197,66.7013904 0,95.4576437 L0,95.4576437 L0,95.6974172 C0.0258303916,115.824913 6.39021427,136.105146 19.5244069,153.353395 L19.5244069,153.353395 C51.4763205,195.313755 111.393564,203.426747 153.353631,171.475385 L153.353631,171.475385 C195.313418,139.523743 203.426968,79.6064824 171.475335,37.6466836 L171.475335,37.6466836 C152.68541,12.9710718 124.222284,0 95.4292586,0 L95.4292586,0 C75.2604958,0 54.9308546,6.3629819 37.6466727,19.5246933" id="path-5"></path>
    </defs>
    <g id="Page-1" stroke="none" stroke-width="1" fill="none" fill-rule="evenodd">
        <g id="Group-10">
            <g id="Group-3">
                <mask id="mask-2" fill="white">
                    <use xlink:href="#path-1"></use>
                </mask>
                <g id="Clip-2"></g>
                <path d="M19.5246034,153.353619 C51.476517,195.313699 111.393479,203.426971 153.353547,171.475329 C195.313333,139.523687 203.426884,79.6064262 171.475251,37.6466275 C139.523618,-4.31345204 79.606375,-12.4267242 37.6465884,19.5249179 C-4.31347886,51.4765601 -12.4270295,111.393821 19.5246034,153.353619" id="Fill-1" fill="#06224A" mask="url(#mask-2)"></path>
            </g>
            <g id="Group-6">
                <mask id="mask-4" fill="white">
                    <use xlink:href="#path-3"></use>
                </mask>
                <g id="Clip-5"></g>
                <path d="M126.628273,157.56316 L122.35952,158.381029 C121.418395,158.561281 121.012128,159.681534 121.61858,160.423315 L137.245406,179.529388 C138.476561,181.034851 140.912198,180.3116 141.122772,178.378812 L143.730238,154.425609 C143.81166,153.679616 143.104693,153.093097 142.386496,153.31069 L138.156208,154.592945 C136.605823,155.062946 134.987773,154.094587 134.669105,152.506298 L119.954205,79.2142253 C119.681301,77.8553217 118.438073,76.9130737 117.056147,77.0175183 L90.729082,79.0073013 C89.3757941,79.1094999 88.1510966,78.207682 87.847028,76.8849971 L71.0488505,3.77766779 C70.6428641,2.01053158 68.6657161,1.11573286 67.0701279,1.97683975 L36.6217115,18.4108696 C35.4208791,19.0588757 34.8787216,20.4907783 35.3484417,21.7716292 L62.5096599,95.8130644 C62.9324922,96.9656056 64.0690295,97.6972797 65.2931654,97.6049079 L102.924115,94.7644063 C104.11849,94.6742807 105.233408,95.3688938 105.678702,96.480724 L128.659608,153.846952 C129.301437,155.448998 128.322971,157.238596 126.628273,157.56316" id="Fill-4" fill="#FFFFFF" mask="url(#mask-4)"></path>
            </g>
            <g id="Group-9">
                <mask id="mask-6" fill="white">
                    <use xlink:href="#path-5"></use>
                </mask>
                <g id="Clip-8"></g>
                <path d="M126.559738,157.576328 L122.131791,158.42452 C121.293426,158.585398 120.93152,159.582957 121.471712,160.243598 L138.519771,181.087326 C138.969837,181.637626 139.850597,181.172959 139.650131,180.490981 L112.273566,87.2558743 C111.901271,85.9879386 110.6937,85.1523814 109.37607,85.2506492 L72.1081492,88.0335939 C70.9909848,88.1169812 69.9313772,87.5268127 69.4139271,86.5331847 L34.5299832,19.5397985 L62.4944705,95.7723253 C62.9262873,96.9490123 64.0866896,97.6961285 65.3363752,97.6017914 L102.882253,94.7674667 C104.101616,94.6756564 105.239557,95.3848694 105.694397,96.5200031 L128.63375,153.782067 C129.289056,155.417805 128.290093,157.244744 126.559738,157.576328" id="Fill-7" fill="#BDF1F6" mask="url(#mask-6)"></path>
            </g>
        </g>
    </g>
</svg>