<svg id="Capa_1" enable-background="new 0 0 512 512" height="512" viewBox="0 0 512 512" width="512" xmlns="http://www.w3.org/2000/svg"><g><path d="m451 121.5c0-7.332-5.301-13.59-12.533-14.796l-37.618-6.271c-32.794-5.467-65.746-9.065-98.748-10.801l13.13-39.389c3.233-9.7-3.996-19.743-14.23-19.743h-90c-10.225 0-17.466 10.033-14.23 19.743l13.13 39.39c-32.969 1.735-65.888 5.328-98.649 10.787l-37.716 6.284c-7.234 1.205-12.536 7.463-12.536 14.796v14.5h390z"/><path d="m210.95 391h90.1v-150h-90.1zm45.05-120c8.284 0 15 6.716 15 15s-6.716 15-15 15-15-6.716-15-15 6.716-15 15-15zm0 60c8.284 0 15 6.716 15 15s-6.716 15-15 15-15-6.716-15-15 6.716-15 15-15z"/><path d="m0 166v46.261c0 4.634 3.143 8.771 7.669 9.768 12.81 2.822 22.83 12.997 25.729 25.816 1.023 4.522 5.163 7.655 9.799 7.655h17.803v151c0 41.421 33.579 75 75 75h240c41.421 0 75-33.579 75-75v-151h17.811c4.63 0 8.766-3.127 9.791-7.643 2.899-12.779 12.92-22.839 25.729-25.751 4.532-1.03 7.669-5.182 7.669-9.83v-46.276zm331.05 240c0 8.284-6.716 15-15 15h-120.1c-8.284 0-15-6.716-15-15v-180c0-8.284 6.716-15 15-15h120.1c8.284 0 15 6.716 15 15z"/></g></svg>