<svg id="Layer_1" height="512" viewBox="0 0 512 512" width="512" xmlns="http://www.w3.org/2000/svg" data-name="Layer 1"><path d="m261 442h25v28h-25z"/><path d="m340 480v16h28v-16.46a49.583 49.583 0 0 1 -8.517.46z"/><path d="m296 442h24v28h-24z"/><path d="m226 442h25v28h-25z"/><path d="m144 479.54v16.46h28v-16h-19.483a49.583 49.583 0 0 1 -8.517-.46z"/><path d="m161 466.205v3.795h21v-28.151a24.744 24.744 0 0 0 -21 24.356z"/><path d="m192 442h24v28h-24z"/><path d="m173 187.033v-74.033a11 11 0 0 0 -22 0v74.035a11 11 0 0 0 22 0z"/><path d="m305 103h61v16h-61z"/><path d="m352 466.205c0-12.589-10-23-22-24.5v28.295h22z"/><path d="m183 187.033a21 21 0 0 1 -42 0v-32.033h-23v280.314c0 18.81 14 34.194 33 34.963v-4.072c0-19.126 15.616-34.2 34.743-34.2h141.5c19.126 0 34.753 15.079 34.753 34.2v4.014a34.686 34.686 0 0 0 32-34.9v-280.319h-210.996zm-42 132.88a5 5 0 0 1 -10 0v-75.807a5 5 0 0 1 10 0zm0-96.187a5 5 0 0 1 -10 0v-4.834a5 5 0 0 1 10 0z"/><path d="m359.483 16h-206.966a34.63 34.63 0 0 0 -34.517 35v94h23v-32a21 21 0 0 1 42 0v32h211v-94a34.63 34.63 0 0 0 -34.517-35zm17.517 104a9 9 0 0 1 -9 9h-64a9 9 0 0 1 -9-9v-18a9 9 0 0 1 9-9h64a9 9 0 0 1 9 9z"/></svg>