<?xml version="1.0" encoding="iso-8859-1"?>
<!-- Generator: Adobe Illustrator 19.0.0, SVG Export Plug-In . SVG Version: 6.00 Build 0)  -->
<svg version="1.1" id="Capa_1" xmlns="http://www.w3.org/2000/svg" xmlns:xlink="http://www.w3.org/1999/xlink" x="0px" y="0px"
	 viewBox="0 0 479.991 479.991" style="enable-background:new 0 0 479.991 479.991;" xml:space="preserve">
<g>
	<g>
		<path d="M119.991,91.93c-30.928,0-56,25.072-56,56c0.035,30.913,25.087,55.965,56,56c30.928,0,56-25.072,56-56
			C175.991,117.002,150.919,91.93,119.991,91.93z M119.991,187.93c-22.091,0-40-17.909-40-40c0.026-22.08,17.92-39.974,40-40
			c22.091,0,40,17.909,40,40S142.082,187.93,119.991,187.93z"/>
	</g>
</g>
<g>
	<g>
		<path d="M471.991,155.93c-5.643,0.051-11.062-2.206-15-6.248c-14.13-13.003-35.87-13.003-50,0c-3.938,4.042-9.357,6.299-15,6.248
			c-4.418,0-8,3.582-8,8s3.582,8,8,8c9.274,0.069,18.222-3.421,25-9.752c8.218-8.284,21.595-8.338,29.879-0.121
			c0.04,0.04,0.081,0.08,0.121,0.121c6.778,6.331,15.726,9.821,25,9.752c4.418,0,8-3.582,8-8S476.409,155.93,471.991,155.93z"/>
	</g>
</g>
<g>
	<g>
		<path d="M471.991,115.93c-5.643,0.051-11.062-2.206-15-6.248c-14.13-13.003-35.87-13.003-50,0c-3.938,4.042-9.357,6.299-15,6.248
			c-4.418,0-8,3.582-8,8s3.582,8,8,8c9.274,0.069,18.222-3.421,25-9.752c8.218-8.284,21.595-8.338,29.879-0.121
			c0.04,0.04,0.081,0.08,0.121,0.121c6.778,6.331,15.726,9.821,25,9.752c4.418,0,8-3.582,8-8S476.409,115.93,471.991,115.93z"/>
	</g>
</g>
<g>
	<g>
		<path d="M471.991,75.93c-5.643,0.051-11.062-2.206-15-6.248c-14.13-13.003-35.87-13.003-50,0c-3.938,4.042-9.357,6.299-15,6.248
			c-4.418,0-8,3.582-8,8s3.582,8,8,8c9.274,0.069,18.222-3.421,25-9.752c8.218-8.284,21.595-8.338,29.879-0.121
			c0.04,0.04,0.081,0.08,0.121,0.121c6.778,6.331,15.726,9.821,25,9.752c4.418,0,8-3.582,8-8S476.409,75.93,471.991,75.93z"/>
	</g>
</g>
<g>
	<g>
		<path d="M359.995,35.927c-1.243-0.001-2.468,0.288-3.58,0.844l-62.024,31l-92.96-7.752C152.923,14.97,77.081,17.775,32.033,66.283
			c-45.048,48.508-42.243,124.35,6.265,169.397c11.267,10.463,24.441,18.66,38.805,24.146l27.072,121.84
			c0.814,3.662,4.064,6.267,7.816,6.264h30.864c-3.637,14.085-16.317,23.945-30.864,24h-36.92c-8.7,0-17.236,2.364-24.696,6.84
			l-30.504,18.304c-3.828,2.207-5.141,7.099-2.934,10.927c2.207,3.828,7.099,5.141,10.927,2.934
			c0.083-0.048,0.166-0.098,0.247-0.149l30.496-18.296c4.973-2.984,10.664-4.56,16.464-4.56h36.92
			c23.397-0.043,43.361-16.934,47.28-40h32.72c4.418,0.004,8.003-3.575,8.007-7.993c0-0.586-0.063-1.17-0.191-1.743l-13.84-62.264
			h14.024c4.418,0,8-3.582,8-8v-32c0-4.418-3.582-8-8-8h-24.688l-2.704-12.168c34.405-16.932,58.7-49.226,65.432-86.976l56.36-4.696
			l62,31c3.946,1.988,8.756,0.401,10.744-3.544c0.565-1.121,0.858-2.36,0.856-3.616v-144
			C367.993,39.512,364.413,35.929,359.995,35.927z M191.991,283.93v16h-9.6l-3.56-16H191.991z M182.015,371.93h-63.624
			L94.687,265.178c20.874,4.558,42.588,3.433,62.88-3.256L182.015,371.93z M223.319,161.554c-0.181,0.401-0.331,0.816-0.448,1.24
			c-8.209,56.848-60.948,96.277-117.796,88.068c-56.848-8.209-96.277-60.948-88.068-117.796
			c7.391-51.185,51.269-89.162,102.985-89.136c57.119-0.332,103.692,45.702,104.024,102.821c0.027,4.561-0.249,9.119-0.824,13.643
			C223.206,160.784,223.249,161.171,223.319,161.554z M287.991,148.57l-48.112,4c0.112-1.584,0.112-3.136,0.112-4.64
			c0.077-25.364-7.966-50.088-22.952-70.552l70.952,5.912V148.57z M351.991,174.986l-48-24V80.874l48-24V174.986z"/>
	</g>
</g>
<g>
</g>
<g>
</g>
<g>
</g>
<g>
</g>
<g>
</g>
<g>
</g>
<g>
</g>
<g>
</g>
<g>
</g>
<g>
</g>
<g>
</g>
<g>
</g>
<g>
</g>
<g>
</g>
<g>
</g>
</svg>
