<?xml version="1.0" encoding="UTF-8"?>
<svg width="12px" height="15px" viewBox="0 0 12 15" version="1.1" xmlns="http://www.w3.org/2000/svg" xmlns:xlink="http://www.w3.org/1999/xlink">
    <title>padlock</title>
    <g id="Page-1" stroke="none" stroke-width="1" fill="none" fill-rule="evenodd">
        <g id="Home-Screen-After-Lock" transform="translate(-345.000000, -467.000000)" fill="#A1A9B5" fill-rule="nonzero">
            <g id="padlock" transform="translate(345.000000, 467.000000)">
                <path d="M10.5,5.625 L10,5.625 L10,3.75 C10,1.681875 8.206,0 6,0 C3.794,0 2,1.681875 2,3.75 L2,5.625 L1.5,5.625 C0.673333333,5.625 0,6.255625 0,7.03125 L0,13.59375 C0,14.369375 0.673333333,15 1.5,15 L10.5,15 C11.3266667,15 12,14.369375 12,13.59375 L12,7.03125 C12,6.255625 11.3266667,5.625 10.5,5.625 Z M3.33333333,3.75 C3.33333333,2.37125 4.52933333,1.25 6,1.25 C7.47066667,1.25 8.66666667,2.37125 8.66666667,3.75 L8.66666667,5.625 L3.33333333,5.625 L3.33333333,3.75 Z M6.66666667,10.45125 L6.66666667,11.875 C6.66666667,12.22 6.36866667,12.5 6,12.5 C5.63133333,12.5 5.33333333,12.22 5.33333333,11.875 L5.33333333,10.45125 C4.93666667,10.234375 4.66666667,9.835625 4.66666667,9.375 C4.66666667,8.685625 5.26466667,8.125 6,8.125 C6.73533333,8.125 7.33333333,8.685625 7.33333333,9.375 C7.33333333,9.835625 7.06333333,10.234375 6.66666667,10.45125 Z" id="Shape"></path>
            </g>
        </g>
    </g>
</svg>