<?xml version="1.0" encoding="UTF-8"?>
<svg width="21px" height="23px" viewBox="0 0 21 23" version="1.1" xmlns="http://www.w3.org/2000/svg" xmlns:xlink="http://www.w3.org/1999/xlink">
    <title>notepad</title>
    <defs>
        <filter id="filter-1">
            <feColorMatrix in="SourceGraphic" type="matrix" values="0 0 0 0 0.039216 0 0 0 0 0.478431 0 0 0 0 1.000000 0 0 0 1.000000 0"></feColorMatrix>
        </filter>
    </defs>
    <g id="Page-1" stroke="none" stroke-width="1" fill="none" fill-rule="evenodd">
        <g id="notepad" transform="translate(-94.000000, -812.000000)" filter="url(#filter-1)">
            <g transform="translate(94.000000, 812.000000)">
                <path d="M12.5661049,18.5493203 L10.1569527,19.6385859 C9.9182774,19.7464883 9.6660539,19.8012031 9.40719174,19.8012031 C9.09802036,19.8012031 8.80090694,19.7229043 8.53910932,19.5792891 C8.52610299,19.5800078 8.51318698,19.5812656 8.49995484,19.5812656 L3.38706592,19.5812656 C3.0129532,19.5812656 2.70965274,19.2795703 2.70965274,18.9074375 C2.70965274,18.5353047 3.0129532,18.2336094 3.38706592,18.2336094 L7.61660805,18.2336094 C7.57424714,17.9074766 7.62261444,17.5706973 7.76496153,17.2592539 L7.93553417,16.8859531 L3.38706592,16.8859531 C3.0129532,16.8859531 2.70965274,16.5842578 2.70965274,16.212125 C2.70965274,15.8399922 3.0129532,15.5382969 3.38706592,15.5382969 L8.55134792,15.5382969 L8.86327411,14.8556641 C8.86408701,14.8538672 8.86499022,14.8524297 8.86584828,14.8507227 C8.93227993,14.7069277 9.02400168,14.5744082 9.13866515,14.4603516 L9.40985623,14.1906406 L3.38706592,14.1906406 C3.0129532,14.1906406 2.70965274,13.8889453 2.70965274,13.5168125 C2.70965274,13.1446797 3.0129532,12.8429844 3.38706592,12.8429844 L10.7646826,12.8429844 L12.119509,11.495373 L3.38706592,11.495373 C3.0129532,11.495373 2.70965274,11.1936777 2.70965274,10.8215449 C2.70965274,10.4494121 3.0129532,10.1477168 3.38706592,10.1477168 L13.4743353,10.1477168 L16.9844195,6.65625391 L17,6.64080078 L17,3.00981055 C17,2.63767773 16.6966995,2.33598242 16.3225868,2.33598242 L14.7419561,2.33598242 L14.7419561,0.673828125 C14.7419561,0.301695312 14.4386556,0 14.0645429,0 C13.6904301,0 13.3871297,0.301695313 13.3871297,0.673828125 L13.3871297,2.3359375 L11.9677684,2.3359375 L11.9677684,0.673828125 C11.9677684,0.301695312 11.664468,0 11.2903552,0 C10.9162425,0 10.612942,0.301695313 10.612942,0.673828125 L10.612942,2.3359375 L9.19353562,2.3359375 L9.19353562,0.673828125 C9.19353562,0.301695312 8.89023516,0 8.51612243,0 C8.14200971,0 7.83870925,0.301695313 7.83870925,0.673828125 L7.83870925,2.3359375 L6.41934798,2.3359375 L6.41934798,0.673828125 C6.41934798,0.301695312 6.11604752,0 5.7419348,0 C5.36782208,0 5.06452161,0.301695313 5.06452161,0.673828125 L5.06452161,2.3359375 L3.64516035,2.3359375 L3.64516035,0.673828125 C3.64516035,0.301695312 3.34185988,0 2.96774716,0 C2.59363444,0 2.29033398,0.301695313 2.29033398,0.673828125 L2.29033398,2.3359375 L0.677413185,2.3359375 C0.303300463,2.3359375 0,2.63763281 0,3.00976562 L0,20.9785156 C0,22.0931621 0.911662664,23 2.03223955,23 L14.9677604,23 C16.0883373,23 17,22.0931621 17,20.9785156 L17,14.2641777 L12.9707012,18.2721074 C12.8503023,18.3918691 12.7127874,18.4840488 12.5661049,18.5493203 Z M8.51612243,8.80006055 L3.38706592,8.80006055 C3.0129532,8.80006055 2.70965274,8.49836523 2.70965274,8.12623242 C2.70965274,7.75409961 3.0129532,7.4524043 3.38706592,7.4524043 L8.51612243,7.4524043 C8.89023516,7.4524043 9.19353562,7.75409961 9.19353562,8.12623242 C9.19353562,8.49841016 8.89023516,8.80006055 8.51612243,8.80006055 Z" id="Shape" fill="#000000" fill-rule="nonzero"></path>
                <path d="M17.0732364,9 L10.1467699,15.9264181 L9.04228466,18.3563459 C8.8686189,18.7383766 9.26163761,19.1313523 9.64366596,18.9577309 L12.0735788,17.8532389 L12.0735788,17.8532389 L19,10.9267754 L17.0732364,9 L17.0732364,9 Z" id="Path" fill="#000000" fill-rule="nonzero"></path>
                <path d="M20.6360558,7.3639715 C20.1507554,6.87867617 19.3639442,6.87867617 18.8786853,7.3639715 L18,8.24264767 L19.7573705,10 L20.6360558,9.12132383 C21.1213147,8.6360285 21.1213147,7.84926684 20.6360558,7.3639715 Z" id="Path" fill="#000000" fill-rule="nonzero"></path>
            </g>
        </g>
    </g>
</svg>