<?xml version="1.0" encoding="UTF-8"?>
<svg width="14px" height="23px" viewBox="0 0 14 23" version="1.1" xmlns="http://www.w3.org/2000/svg" xmlns:xlink="http://www.w3.org/1999/xlink">
    <title>Group 9</title>
    <defs>
        <filter id="filter-1">
            <feColorMatrix in="SourceGraphic" type="matrix" values="0 0 0 0 0.600000 0 0 0 0 0.600000 0 0 0 0 0.600000 0 0 0 1.000000 0"></feColorMatrix>
        </filter>
        <polygon id="path-2" points="0 2.28264478e-15 14 2.28264478e-15 14 16 0 16"></polygon>
        <polygon id="path-4" points="2.61008208e-16 0 3 0 3 6 2.61008208e-16 6"></polygon>
    </defs>
    <g id="Page-1" stroke="none" stroke-width="1" fill="none" fill-rule="evenodd">
        <g id="Call-of-Action" transform="translate(-303.000000, -812.000000)">
            <g id="Group-9" transform="translate(-3.500000, 806.000000)" filter="url(#filter-1)">
                <g transform="translate(313.500000, 17.500000) scale(-1, 1) translate(-313.500000, -17.500000) translate(306.500000, 6.000000)">
                    <g id="Group-3" transform="translate(0.000000, 7.000000)">
                        <mask id="mask-3" fill="white">
                            <use xlink:href="#path-2"></use>
                        </mask>
                        <g id="Clip-2"></g>
                        <path d="M13.5776158,2.28264478e-15 L0.420576944,0.0309206679 C0.189071779,0.0309206679 0,0.222950063 0,0.459191997 L0,2.84952025 C0,3.08580234 0.189111325,3.27783174 0.421763339,3.27783174 L1.19311767,3.27843409 L1.19311767,7.04750288 C1.19311767,9.48385073 3.03108044,11.471367 5.3690295,11.7118656 L5.3690295,15.5716885 C5.3690295,15.8079706 5.55810128,16 5.79079284,16 L8.17702818,16 C8.29396715,16 8.39896309,15.9515308 8.47532737,15.8740284 C8.5516521,15.7964456 8.59879152,15.6892674 8.59938471,15.5711263 L8.59938471,11.711223 C9.69110517,11.5985433 10.6796093,11.1242524 11.4151345,10.3773376 C12.255102,9.52444916 12.7758897,8.34621109 12.7758897,7.04746272 L12.7758897,3.27843409 L13.5466113,3.27843409 C13.776851,3.27843409 13.9654087,3.08941645 13.9684142,2.85618627 L14.0000352,0.433772798 C14.0011983,0.318683663 13.9570644,0.208413333 13.8783273,0.127256619 C13.7995507,0.0460195915 13.6897696,2.28264478e-15 13.5776158,2.28264478e-15" id="Fill-1" fill="#000000" mask="url(#mask-3)"></path>
                    </g>
                    <g id="Group-6" transform="translate(2.000000, 0.000000)">
                        <mask id="mask-5" fill="white">
                            <use xlink:href="#path-4"></use>
                        </mask>
                        <g id="Clip-5"></g>
                        <path d="M1.4966758,-1.86827596e-05 C0.671564785,-0.000568683864 -0.000587353083,0.67077179 2.61008208e-16,1.49488643 L2.61008208e-16,6 L3,5.99335924 L2.99941226,1.49543677 C2.99941226,1.09585381 2.8442861,0.720595834 2.56114321,0.437794852 C2.27800031,0.15499387 1.90228865,-1.86827596e-05 1.4966758,-1.86827596e-05" id="Fill-4" fill="#000000" mask="url(#mask-5)"></path>
                    </g>
                    <path d="M10.4964193,0 C9.67146993,-0.00055010455 8.99944944,0.672529108 9,1.49874138 L9,6 L12,5.99279028 L12,1.49925636 C12,1.09867528 11.8449042,0.722408626 11.5618168,0.438875203 C11.2787293,0.15534178 10.9025404,-0.000586888855 10.4964193,0" id="Fill-7" fill="#000000"></path>
                </g>
            </g>
        </g>
    </g>
</svg>